<?xml version="1.0" standalone="no"?>
<!DOCTYPE svg PUBLIC "-//W3C//DTD SVG 20010904//EN"
 "http://www.w3.org/TR/2001/REC-SVG-20010904/DTD/svg10.dtd">
<svg version="1.0" xmlns="http://www.w3.org/2000/svg"
 width="1000.000000pt" height="1000.000000pt" viewBox="0 0 1000.000000 1000.000000"
 preserveAspectRatio="xMidYMid meet">
<metadata>
Created by potrace 1.11, written by Peter Selinger 2001-2013
</metadata>
<g transform="translate(0.000000,1000.000000) scale(0.100000,-0.100000)"
fill="#000000" stroke="none">
<path d="M3856 7132 c-336 -1296 -612 -2363 -614 -2369 -3 -10 78 -13 370 -15
l373 -3 -402 -2095 c-221 -1152 -401 -2104 -400 -2115 1 -13 28 25 75 105 39
69 749 1300 1576 2735 l1504 2610 -544 3 c-299 1 -544 5 -544 8 0 4 354 785
786 1737 432 952 788 1737 791 1744 4 11 -206 13 -1178 13 l-1184 0 -609
-2358z"/>
</g>
</svg>
